<svg xmlns="http://www.w3.org/2000/svg" width="80" height="80" viewBox="0 0 80 80">
  <!-- Logo d'essai (bac à sable indexTEST) : proposé par Xavier, généré avec ChatGPT.
       Avion vu de face + seuil de piste + arc de jauge de performance. -->
  <defs>
    <linearGradient id="bg" x1="0" y1="0" x2="1" y2="1">
      <stop offset="0%" stop-color="#0b1220"/>
      <stop offset="100%" stop-color="#1a2332"/>
    </linearGradient>
  </defs>

  <rect width="80" height="80" rx="18" fill="url(#bg)"/>

  <!-- Arc jauge performance -->
  <path d="M40 8 A32 32 0 0 1 72 40" fill="none" stroke="#ff9f1c" stroke-width="5" stroke-linecap="round"/>

  <!-- Avion face -->
  <path d="M40 14
           L46 34
           L58 38
           L58 42
           L46 42
           L42 54
           L48 58
           L48 62
           L40 58
           L32 62
           L32 58
           L38 54
           L34 42
           L22 42
           L22 38
           L34 34 Z" fill="#f5f7fa"/>

  <!-- Axe de piste -->
  <path d="M40 62 L40 72" stroke="#f5f7fa" stroke-width="3" stroke-linecap="round"/>

  <!-- Seuil de piste -->
  <path d="M26 70 H54" stroke="#2ec4b6" stroke-width="3" stroke-linecap="round"/>
  <path d="M40 66 L40 70" stroke="#2ec4b6" stroke-width="3" stroke-linecap="round"/>
</svg>
