<svg viewBox="0 0 512 512" xmlns="http://www.w3.org/2000/svg" role="img" aria-label="Perf Avions">
  <!-- Variante « maskable » : Android rogne l'icône en cercle ou en squircle selon
       le lanceur. Deux différences avec icon.svg, et deux seulement :
       fond à fond perdu (des coins arrondis seraient rognés, laissant du vide),
       et avion réduit à 70 % pour tenir dans la zone sûre des 80 % centraux. -->
  <rect width="512" height="512" fill="#0d2440"/>
  <g transform="translate(256,258) scale(0.7) translate(-256,-258)">
    <g fill="#fff">
      <rect x="171" y="62" width="170" height="9" rx="4.5"/>
      <path d="M256 72c14 0 24 26 26 62l4 96c2 60-2 132-6 180h-48c-4-48-8-120-6-180l4-96c2-36 12-62 26-62z"/>
      <polygon points="230,182 48,226 48,254 230,272"/>
      <polygon points="282,182 464,226 464,254 282,272"/>
      <polygon points="234,398 152,424 152,442 234,450"/>
      <polygon points="278,398 360,424 360,442 278,450"/>
      <rect x="249" y="392" width="14" height="62" rx="6"/>
    </g>
    <ellipse cx="256" cy="196" rx="27" ry="54" fill="#0d2440" opacity="0.85"/>
  </g>
</svg>
